<svg xmlns="http://www.w3.org/2000/svg" viewBox="0 0 1466.282 198.379" fill="none">
  <!-- wordmark-vector-0 -->
  <g transform="translate(111.7307, 11.0100) scale(1.000797, 0.999922)">
    <path id="Vector" d="M122.337 0V173.119H79.9368V151.479H42.8473C42.4001 158.383 42.4001 165.737 42.4001 173.119H0C0 79.711 42.0926 33.7088 122.337 0ZM79.9368 113.728V71.768C67.8624 79.5426 53.3285 94.9515 49.1919 113.728H79.9368Z" fill="#eee2c8"/>
  </g>
  <!-- wordmark-vector-1 -->
  <g transform="translate(357.7728, 8.3121) scale(0.999605, 0.999957)">
    <path id="Vector" d="M97.4334 138.989C87.2736 139.18 77.2842 136.352 68.7207 130.859C60.1572 125.365 53.4018 117.453 49.3036 108.115H120.576V70.3645H49.3036C53.4575 61.0876 60.2333 53.2401 68.7896 47.7963C77.346 42.3525 87.3061 39.5522 97.4334 39.7431C105.249 39.7709 113.029 40.8182 120.576 42.8587V3.8171C110.689 1.30477 100.532 0.0228055 90.3341 0C37.5926 0 0 38.6766 0 89.338C0 139.999 37.5926 178.648 90.3341 178.648C100.531 178.634 110.688 177.362 120.576 174.859V135.733C113.038 137.835 105.257 138.93 97.4334 138.989Z" fill="#eee2c8"/>
  </g>
  <!-- wordmark-vector-2 -->
  <g transform="translate(0.0000, 11.0100) scale(1.000006, 0.999922)">
    <path id="Vector" d="M94.5267 65.6773C99.631 59.3203 102.395 51.3896 102.353 43.2235C102.353 20.1803 80.6076 2.91898 50.4217 0.336793C47.7944 0.112255 40.4715 0 37.8442 0H0V173.119H39.4933C42.7634 173.119 50.6733 173.119 53.8595 172.754C94.8062 169.582 121.554 146.258 121.554 111.539C121.554 90.2081 112.471 74.8273 94.5267 65.6773ZM54.2508 137.53H41.0585V35.3647C42.2883 35.5612 48.2696 35.8419 49.4434 36.2067C53.5681 37.0836 57.257 39.3823 59.8708 42.7042C62.4845 46.0261 63.8583 50.1619 63.7538 54.3943C63.7889 57.9215 63.1109 61.4191 61.7609 64.6755C60.4109 67.932 58.417 70.8795 55.8999 73.3397L50.3099 78.0831L57.5768 79.0374C64.4413 80.0333 70.7012 83.5296 75.1646 88.8606C79.628 94.1915 81.9831 100.985 81.7815 107.947C81.8933 125.124 72.9773 137.558 54.2508 137.558V137.53Z" fill="#eee2c8"/>
  </g>
  <!-- wordmark-vector-3 -->
  <g transform="translate(242.2298, 11.0100) scale(1.000982, 0.999922)">
    <path id="Vector" d="M94.5546 65.6773C99.6468 59.3135 102.409 51.3872 102.381 43.2235C102.381 20.1803 80.6076 2.91898 50.4217 0.336793C47.8224 0.112255 40.4995 0 37.8442 0H0V173.119H39.5212C42.7913 173.119 50.7012 173.119 53.8875 172.754C94.8341 169.582 121.582 146.258 121.582 111.539C121.582 90.2081 112.471 74.8273 94.5546 65.6773ZM54.2787 137.53H41.0864V35.3647C42.3162 35.5612 48.2695 35.8419 49.4713 36.2067C53.5959 37.0836 57.285 39.3823 59.8987 42.7042C62.5125 46.0261 63.8863 50.1619 63.7818 54.3943C63.8168 57.9215 63.1388 61.4191 61.7888 64.6755C60.4389 67.932 58.445 70.8795 55.9279 73.3397L50.3379 78.0831L57.6328 79.0374C64.4947 80.0338 70.7515 83.5312 75.2103 88.8628C79.6691 94.1944 82.0181 100.987 81.8094 107.947C81.8933 125.124 73.0052 137.558 54.2787 137.558V137.53Z" fill="#eee2c8"/>
  </g>
  <!-- wordmark-vector-4 -->
  <g transform="translate(1002.0571, 8.2327) scale(1.000562, 0.999917)">
    <path id="Vector" d="M43.5971 118.388C43.5971 138.372 55.8672 141.852 61.4292 141.852C63.6135 141.889 65.7834 141.49 67.8128 140.678C69.8422 139.866 71.6907 138.657 73.251 137.122C74.8112 135.586 76.052 133.755 76.9015 131.734C77.7509 129.713 78.1921 127.542 78.1992 125.348C78.1992 116.283 71.016 113.504 44.6593 102.333C32.6128 97.4495 2.73435 85.3525 2.73435 53.0191C2.73435 18.3841 34.0102 0 62.7148 0C86.3325 0 119.677 12.0971 120.376 53.4962H76.9414C76.0191 47.6863 74.6215 36.6559 61.1776 36.6559C53.5473 36.6559 46.1405 42.0167 46.1405 50.1562C46.1405 58.2957 50.7802 60.1482 81.581 74.0976C113.528 88.5242 121.633 103.4 121.633 123.412C121.633 150.861 107.267 178.536 61.8763 178.536C16.9608 178.536 -1.09486 152.012 0.0510908 118.303L43.5971 118.388Z" fill="#eee2c8"/>
  </g>
  <!-- wordmark-vector-5 -->
  <g transform="translate(821.2645, 11.0100) scale(0.999599, 0.999922)">
    <path id="Vector" d="M122.337 0V173.119H79.9368V151.479H42.8752C42.4 158.383 42.4001 165.737 42.4001 173.119H0C0 79.711 42.1485 33.7088 122.337 0ZM79.9368 113.728V71.768C67.8625 79.5426 53.3284 94.9515 49.0521 113.728H79.9368Z" fill="#eee2c8"/>
  </g>
  <!-- wordmark-vector-6 -->
  <g transform="translate(1216.4275, 8.3121) scale(0.999312, 0.999957)">
    <path id="Vector" d="M97.4334 138.989C87.2736 139.18 77.2841 136.352 68.7206 130.859C60.1571 125.365 53.4018 117.453 49.3037 108.115H120.576V70.3645H49.3037C53.4576 61.0876 60.2333 53.2401 68.7897 47.7963C77.3461 42.3525 87.3061 39.5522 97.4334 39.7431C104.086 39.7431 118.731 40.6414 124.573 44.3743L120.576 3.8171C110.689 1.30477 100.533 0.0228055 90.3342 0C37.5927 0 0 38.6766 0 89.338C0 139.999 37.5927 178.648 90.3342 178.648C100.531 178.634 110.688 177.362 120.576 174.859V135.733C113.038 137.835 105.257 138.93 97.4334 138.989Z" fill="#eee2c8"/>
  </g>
  <!-- wordmark-vector-7 -->
  <g transform="translate(952.3502, 11.0100) scale(0.999421, 0.999922)">
    <path id="Vector" d="M0 0H42.4001V173.119H0V0Z" fill="#eee2c8"/>
  </g>
  <!-- wordmark-vector-8 -->
  <g transform="translate(1131.0899, 11.0100) scale(1.000823, 0.999922)">
    <path id="Vector" d="M0 0H43.2944V134.442H115.741V173.119H0V0Z" fill="#eee2c8"/>
  </g>
  <!-- wordmark-vector-9 -->
  <g transform="translate(1336.9559, 12.0416) scale(1.000233, 1.000025)">
    <path id="Vector" d="M43.9372 112.016C13.9749 83.5281 0 51.1105 0 10.9743V0H41.4217C41.4217 31.9125 44.2167 52.3454 64.5363 76.2587C85.359 52.1209 87.8745 31.2108 87.8745 0H129.296V10.9743C129.296 51.4192 115.321 83.6123 85.3591 112.016V171.772H43.9372V112.016Z" fill="#eee2c8"/>
  </g>
  <!-- wordmark-vector-10 -->
  <g transform="translate(730.2084, 11.0100) scale(0.999596, 0.999922)">
    <path id="Vector" d="M44.0212 0C75.94 0 90.1665 4.91177 99.4738 12.6303C105.993 18.3121 111.184 25.368 114.677 33.2952C118.17 41.2225 119.879 49.8258 119.682 58.4921C119.682 76.0342 112.471 94.5024 101.514 103.877C89.6355 113.925 77.9804 118.837 51.2043 118.837H42.5398V173.119H0V0H44.0212ZM42.5398 81.9563H48.9684C55.2983 82.292 61.6303 81.3373 67.5829 79.1496C73.9555 76.3429 79.0424 70.4488 79.0424 59.1938C79.0424 47.9388 73.7041 42.5499 67.052 39.7151C60.6717 37.4945 53.9222 36.5412 47.1795 36.9084H42.5398V81.9563Z" fill="#eee2c8"/>
  </g>
  <!-- wordmark-radial-0 -->
  <g transform="translate(607.4806, 67.7464) scale(0.999115, 1.000247)">
    <g id="&#60;Radial Repeat&#62;">
<path id="Vector" d="M67.024 62.8706C84.3127 62.8706 98.3279 48.7966 98.3279 31.4353C98.3279 14.0741 84.3127 1.57807e-06 67.024 1.57807e-06C49.7353 1.57807e-06 35.72 14.0741 35.72 31.4353C35.72 48.7966 49.7353 62.8706 67.024 62.8706Z" fill="#eee2c8"/>
<path id="Vector_2" d="M9.16758 31.3792C9.16758 31.3792 21.2419 30.6775 36.0554 15.8019C50.8689 0.926255 62.9432 0.224523 62.9432 0.224523V62.5619C62.9432 62.5619 50.6453 61.6357 36.0554 46.9846C21.4655 32.3335 9.16758 31.3792 9.16758 31.3792Z" fill="#eee2c8"/>
<path id="Vector_3" d="M21.5774 27.5621V35.3367C18.1302 33.9574 14.4906 33.1241 10.7887 32.8667H0V30.06H10.7887C14.4888 29.772 18.1252 28.9301 21.5774 27.5621Z" fill="#eee2c8"/>
</g>
  </g>
  <!-- wordmark-radial-1 -->
  <g transform="translate(575.6623, 99.9235) scale(1.000037, 0.999955)">
    <g id="&#60;Radial Repeat&#62;">
<path id="Vector" d="M31.3039 98.4599C48.5926 98.4599 62.6079 84.3858 62.6079 67.0246C62.6079 49.6633 48.5926 35.5893 31.3039 35.5893C14.0153 35.5893 1.35123e-05 49.6633 1.35123e-05 67.0246C1.35123e-05 84.3858 14.0153 98.4599 31.3039 98.4599Z" fill="#eee2c8"/>
<path id="Vector_2" d="M31.276 8.95347C31.276 8.95347 32.0027 21.0785 46.8162 35.9541C61.6297 50.8298 62.3284 62.9548 62.3284 62.9548H0.223618C0.223618 62.9548 1.14593 50.6052 15.7358 35.9541C30.3257 21.303 31.276 8.95347 31.276 8.95347Z" fill="#eee2c8"/>
<path id="Vector_3" d="M35.161 21.6679H27.4189C28.7778 18.2031 29.5979 14.5492 29.8506 10.834V7.32795e-06H32.6456V10.834C32.9359 14.5519 33.7839 18.2045 35.161 21.6679Z" fill="#eee2c8"/>
</g>
  </g>
  <!-- wordmark-radial-2 -->
  <g transform="translate(508.2133, 67.7464) scale(1.000822, 1.000247)">
    <g id="&#60;Radial Repeat&#62;">
<path id="Vector" d="M31.3039 62.8706C48.5926 62.8706 62.6079 48.7966 62.6079 31.4353C62.6079 14.0741 48.5926 0 31.3039 0C14.0152 0 0 14.0741 0 31.4353C0 48.7966 14.0152 62.8706 31.3039 62.8706Z" fill="#eee2c8"/>
<path id="Vector_2" d="M89.1044 31.3792C89.1044 31.3792 77.0301 32.1089 62.2166 46.9846C47.4031 61.8602 35.3567 62.5618 35.3567 62.5618V0.280713C35.3567 0.280713 47.6267 1.2069 62.2166 15.858C76.8065 30.5091 89.1044 31.3792 89.1044 31.3792Z" fill="#eee2c8"/>
<path id="Vector_3" d="M76.5828 35.3367V27.5621C80.0339 28.9241 83.6723 29.7475 87.3716 30.0039H98.1602V32.8106H87.2597C83.5959 33.1174 79.9977 33.9687 76.5828 35.3367Z" fill="#eee2c8"/>
</g>
  </g>
  <!-- wordmark-radial-3 -->
  <g transform="translate(575.6623, 0.0000) scale(1.000037, 0.999941)">
    <g id="&#60;Radial Repeat&#62;">
<path id="Vector" d="M31.3039 62.8706C48.5926 62.8706 62.6079 48.7966 62.6079 31.4353C62.6079 14.0741 48.5926 0 31.3039 0C14.0152 0 0 14.0741 0 31.4353C0 48.7966 14.0152 62.8706 31.3039 62.8706Z" fill="#eee2c8"/>
<path id="Vector_2" d="M31.276 89.5065C31.276 89.5065 30.5772 77.3814 15.7638 62.5058C0.950309 47.6301 0.251595 35.5331 0.251595 35.5331H62.3284C62.3284 35.5331 61.4061 47.8547 46.8162 62.5058C32.2263 77.1569 31.276 89.5065 31.276 89.5065Z" fill="#eee2c8"/>
<path id="Vector_3" d="M27.4189 76.9323H35.161C33.7914 80.3952 32.9617 84.0495 32.7014 87.7663V98.6002H29.9064V87.9066C29.6293 84.144 28.7908 80.4447 27.4189 76.9323Z" fill="#eee2c8"/>
</g>
  </g>
  <!-- wordmark-radial-4 -->
  <g transform="translate(605.4278, 97.5826) scale(0.983648, 1.003403)">
    <path id="Vector" d="M1.56519 3.14353C2.42962 3.14353 3.13038 2.43983 3.13038 1.57177C3.13038 0.703707 2.42962 0 1.56519 0C0.700756 0 0 0.703707 0 1.57177C0 2.43983 0.700756 3.14353 1.56519 3.14353Z" fill="#eee2c8"/>
  </g>
</svg>
