<svg preserveAspectRatio="none" width="100%" height="100%" overflow="visible" style="display: block;" viewBox="0 0 21 24" fill="none" xmlns="http://www.w3.org/2000/svg">
<g id="instagram-brands" clip-path="url(#clip0_0_73)">
<path id="Vector" d="M10.5047 6.60952C7.52347 6.60952 5.11879 9.01421 5.11879 11.9955C5.11879 14.9767 7.52347 17.3814 10.5047 17.3814C13.486 17.3814 15.8907 14.9767 15.8907 11.9955C15.8907 9.01421 13.486 6.60952 10.5047 6.60952ZM10.5047 15.497C8.57816 15.497 7.00316 13.9267 7.00316 11.9955C7.00316 10.0642 8.57347 8.4939 10.5047 8.4939C12.436 8.4939 14.0063 10.0642 14.0063 11.9955C14.0063 13.9267 12.4313 15.497 10.5047 15.497ZM17.3672 6.38921C17.3672 7.08765 16.8047 7.64546 16.111 7.64546C15.4125 7.64546 14.8547 7.08296 14.8547 6.38921C14.8547 5.69546 15.4172 5.13296 16.111 5.13296C16.8047 5.13296 17.3672 5.69546 17.3672 6.38921ZM20.9344 7.66421C20.8547 5.9814 20.4703 4.49077 19.2375 3.26265C18.0094 2.03452 16.5188 1.65015 14.836 1.56577C13.1016 1.46733 7.90316 1.46733 6.16879 1.56577C4.49066 1.64546 3.00004 2.02983 1.76722 3.25796C0.534412 4.48608 0.154724 5.97671 0.0703491 7.65952C-0.0280884 9.3939 -0.0280884 14.5923 0.0703491 16.3267C0.150037 18.0095 0.534412 19.5001 1.76722 20.7283C3.00004 21.9564 4.48597 22.3408 6.16879 22.4251C7.90316 22.5236 13.1016 22.5236 14.836 22.4251C16.5188 22.3455 18.0094 21.9611 19.2375 20.7283C20.4657 19.5001 20.85 18.0095 20.9344 16.3267C21.0328 14.5923 21.0328 9.39858 20.9344 7.66421ZM18.6938 18.1876C18.3282 19.1064 17.6204 19.8142 16.6969 20.1845C15.3141 20.733 12.0328 20.6064 10.5047 20.6064C8.9766 20.6064 5.69066 20.7283 4.31254 20.1845C3.39379 19.8189 2.68597 19.1111 2.31566 18.1876C1.76722 16.8048 1.89379 13.5236 1.89379 11.9955C1.89379 10.4673 1.77191 7.1814 2.31566 5.80327C2.68129 4.88452 3.3891 4.17671 4.31254 3.8064C5.69535 3.25796 8.9766 3.38452 10.5047 3.38452C12.0328 3.38452 15.3188 3.26265 16.6969 3.8064C17.6157 4.17202 18.3235 4.87983 18.6938 5.80327C19.2422 7.18608 19.1157 10.4673 19.1157 11.9955C19.1157 13.5236 19.2422 16.8095 18.6938 18.1876Z" fill="var(--fill-0, #2D2D32)"/>
</g>
<defs>
<clipPath id="clip0_0_73">
<rect width="21" height="24" fill="white"/>
</clipPath>
</defs>
</svg>
