<svg width="54" height="24" viewBox="0 0 54 24" fill="none" xmlns="http://www.w3.org/2000/svg">
<path opacity="0.25" d="M0.859375 1.86377C1.25731 2.20161 1.67286 2.51821 2.1042 2.8122C2.57433 3.13795 3.06989 3.42531 3.58609 3.67163C6.09531 4.99204 8.81163 5.87412 11.6179 6.27977C14.5572 6.68456 17.3989 7.61847 20.0054 9.03615C20.2129 9.21398 20.4796 9.36214 20.687 9.56961C21.8996 10.8093 22.7502 12.3568 23.147 14.0448C24.0549 16.1924 24.7017 18.4413 25.0735 20.743C25.0735 21.8692 25.2513 21.8693 26.4664 21.8693H27.563C28.7782 21.8693 28.956 21.8692 28.956 20.743C29.3244 18.4371 29.9816 16.1866 30.9121 14.0448C31.2791 12.3433 32.1219 10.781 33.3424 9.53994L34.024 9.03615C36.6286 7.52673 39.4941 6.52129 42.4708 6.07237C44.7494 5.72542 46.9719 5.07754 49.08 4.14584L50.0877 3.64205C50.7954 3.3113 51.4702 2.91439 52.1031 2.45656L52.8737 1.86377" stroke="#141414" stroke-width="3" stroke-miterlimit="10"/>
</svg>
