<svg width="54" height="32" viewBox="0 0 54 32" fill="none" xmlns="http://www.w3.org/2000/svg">
<g clip-path="url(#clip0_1_296)">
<path d="M48.2981 21.0707C51.064 21.0707 53.3062 18.8004 53.3062 15.9999C53.3062 13.1994 51.064 10.9292 48.2981 10.9292C45.5321 10.9292 43.2899 13.1994 43.2899 15.9999C43.2899 18.8004 45.5321 21.0707 48.2981 21.0707Z" fill="#141414"/>
<path d="M39.042 15.9908C39.042 15.9908 40.9737 15.8776 43.3436 13.4781C45.7135 11.0785 47.6453 10.9653 47.6453 10.9653V21.0208C47.6453 21.0208 45.6778 20.8714 43.3436 18.5081C41.0095 16.1447 39.042 15.9908 39.042 15.9908Z" fill="#141414"/>
<path d="M41.0274 15.375V16.6291C40.4759 16.4066 39.8936 16.2722 39.3013 16.2307H37.5753V15.7779H39.3013C39.8933 15.7315 40.4751 15.5957 41.0274 15.375Z" fill="#141414"/>
<path d="M37.5024 31.9999C40.2683 31.9999 42.5105 29.7296 42.5105 26.9291C42.5105 24.1286 40.2683 21.8584 37.5024 21.8584C34.7365 21.8584 32.4943 24.1286 32.4943 26.9291C32.4943 29.7296 34.7365 31.9999 37.5024 31.9999Z" fill="#141414"/>
<path d="M37.4979 17.562C37.4979 17.562 37.6142 19.5179 39.9841 21.9174C42.354 24.317 42.4658 26.2728 42.4658 26.2728H32.53C32.53 26.2728 32.6776 24.2807 35.0117 21.9174C37.3459 19.5541 37.4979 17.562 37.4979 17.562Z" fill="#141414"/>
<path d="M38.1195 19.6129H36.8809C37.0983 19.054 37.2295 18.4646 37.2699 17.8653V16.1177H37.717V17.8653C37.7635 18.465 37.8992 19.0542 38.1195 19.6129Z" fill="#141414"/>
<path d="M26.7077 21.0707C29.4736 21.0707 31.7159 18.8004 31.7159 15.9999C31.7159 13.1994 29.4736 10.9292 26.7077 10.9292C23.9418 10.9292 21.6996 13.1994 21.6996 15.9999C21.6996 18.8004 23.9418 21.0707 26.7077 21.0707Z" fill="#141414"/>
<path d="M35.9549 15.991C35.9549 15.991 34.0232 16.1087 31.6532 18.5083C29.2833 20.9078 27.3561 21.021 27.3561 21.021V10.9746C27.3561 10.9746 29.3191 11.124 31.6532 13.4873C33.9874 15.8507 35.9549 15.991 35.9549 15.991Z" fill="#141414"/>
<path d="M33.9517 16.6291V15.375C34.5038 15.5947 35.0859 15.7275 35.6777 15.7689H37.4037V16.2216H35.6598C35.0736 16.2711 34.498 16.4084 33.9517 16.6291Z" fill="#141414"/>
<path d="M37.5024 10.1415C40.2683 10.1415 42.5105 7.87123 42.5105 5.07074C42.5105 2.27025 40.2683 0 37.5024 0C34.7365 0 32.4943 2.27025 32.4943 5.07074C32.4943 7.87123 34.7365 10.1415 37.5024 10.1415Z" fill="#141414"/>
<path d="M37.498 14.4382C37.498 14.4382 37.3862 12.4824 35.0163 10.0828C32.6463 7.68327 32.5345 5.73193 32.5345 5.73193H42.4659C42.4659 5.73193 42.3183 7.71949 39.9842 10.0828C37.65 12.4461 37.498 14.4382 37.498 14.4382Z" fill="#141414"/>
<path d="M36.8809 12.4097H38.1195C37.9003 12.9683 37.7676 13.5577 37.726 14.1573V15.9049H37.2788V14.1799C37.2345 13.573 37.1003 12.9762 36.8809 12.4097Z" fill="#141414"/>
<path d="M37.4978 16.2488C37.6361 16.2488 37.7482 16.1353 37.7482 15.9952C37.7482 15.8552 37.6361 15.7417 37.4978 15.7417C37.3595 15.7417 37.2474 15.8552 37.2474 15.9952C37.2474 16.1353 37.3595 16.2488 37.4978 16.2488Z" fill="#141414"/>
<path d="M15.1614 12.3691C15.978 11.3437 16.4202 10.0644 16.4134 8.74717C16.4134 5.03013 12.9345 2.24575 8.10525 1.82923C7.68493 1.79301 6.51338 1.7749 6.09305 1.7749H0.0385742V29.7002H6.35688C6.88005 29.7002 8.1455 29.7002 8.65526 29.6413C15.2061 29.1297 19.4854 25.3674 19.4854 19.767C19.4854 16.3261 18.0321 13.8451 15.1614 12.3691ZM8.71786 23.9594H6.60729V7.47949C6.80403 7.51118 7.76095 7.55645 7.94875 7.61531C8.60862 7.75676 9.1988 8.12755 9.61696 8.6634C10.0351 9.19925 10.2549 9.86638 10.2382 10.5491C10.2438 11.1181 10.1353 11.6822 9.91935 12.2075C9.70338 12.7328 9.38439 13.2083 8.98168 13.6051L8.08737 14.3703L9.24997 14.5242C10.3482 14.6849 11.3497 15.2488 12.0637 16.1087C12.7778 16.9687 13.1546 18.0645 13.1223 19.1875C13.1402 21.9583 11.7138 23.9639 8.71786 23.9639V23.9594Z" fill="#141414"/>
</g>
<defs>
<clipPath id="clip0_1_296">
<rect width="53.3333" height="32" fill="white"/>
</clipPath>
</defs>
</svg>
