<svg preserveAspectRatio="none" width="100%" height="100%" overflow="visible" style="display: block;" viewBox="0 0 48 48" fill="none" xmlns="http://www.w3.org/2000/svg">
<g id="Frame 1160445521">
<path id="Union" d="M24 2C27.8504 2.00003 30.9714 5.12467 30.9717 8.97949C30.9717 10.3755 30.5605 11.6748 29.8555 12.7656C29.3424 13.6781 28.5843 14.7483 27.4551 15.8789C25.8995 17.4363 25.0416 18.8777 24.5684 19.9561C24.4335 20.4564 24.347 20.9698 24.3105 21.4883V23.7188H26.5039C27.0368 23.6774 27.5634 23.583 28.0771 23.4404C29.1447 22.9698 30.5702 22.1151 32.1309 20.5527C33.4396 19.2425 34.6537 18.4294 35.6406 17.9229C36.0881 17.6733 36.5662 17.473 37.0674 17.3262C37.7308 17.1166 38.1201 17.0938 38.1201 17.0938V17.1045C38.4174 17.0658 38.7205 17.0449 39.0283 17.0449C42.8788 17.0449 46.0009 20.1695 46.001 24.0244C46.001 27.8795 42.8788 31.0049 39.0283 31.0049C37.6129 31.0048 36.2968 30.5811 35.1973 29.8555C34.2948 29.3421 33.2417 28.5887 32.1309 27.4766C30.6325 25.9765 29.2415 25.1257 28.1787 24.6416C27.6332 24.483 27.072 24.3812 26.5039 24.3418H24.2988V26.5918C24.3386 27.0998 24.4253 27.6022 24.5576 28.0928C25.0274 29.1636 25.8843 30.5983 27.4541 32.1699C28.6365 33.3537 29.4124 34.4605 29.9248 35.3916C30.5876 36.4597 30.9717 37.7193 30.9717 39.0693C30.9716 42.9243 27.8505 46.0498 24 46.0498C20.1495 46.0498 17.0284 42.9243 17.0283 39.0693C17.0283 38.7628 17.0496 38.4611 17.0879 38.165H17.0771C17.0777 38.1576 17.098 37.915 17.208 37.4932C17.3767 36.7616 17.6588 36.0737 18.0371 35.4502C18.5063 34.5816 19.2025 33.5606 20.2363 32.4736L20.8281 31.8662C22.2237 30.3991 23.0045 29.0517 23.4424 28.0371C23.5631 27.5639 23.6424 27.0805 23.6758 26.5918V24.3291H21.4346C20.8777 24.3756 20.3279 24.4796 19.793 24.6367C18.7394 25.1192 17.3607 25.9706 15.8564 27.4766C14.7248 28.6094 13.6639 29.3688 12.7607 29.8818C11.6696 30.5907 10.3693 31.0049 8.97168 31.0049C5.1213 31.0047 2 27.8794 2 24.0244C2.00003 20.1695 5.12132 17.0441 8.97168 17.0439C10.3832 17.0439 11.6962 17.4656 12.7939 18.1875C13.695 18.7008 14.7465 19.4532 15.8564 20.5645C17.4256 22.1354 18.8769 22.9913 19.957 23.458C20.4482 23.5874 20.9509 23.6709 21.459 23.7061H23.6885V21.5195C23.6476 20.9668 23.5508 20.4202 23.4023 19.8877C22.9277 18.8246 22.0757 17.4173 20.5391 15.8789C19.2868 14.6252 18.4884 13.4599 17.9785 12.4971C17.6416 11.9201 17.3845 11.2911 17.2236 10.624C17.0995 10.1561 17.084 9.88965 17.084 9.88965H17.0889C17.0501 9.5918 17.0283 9.28791 17.0283 8.97949C17.0286 5.12465 20.1496 2 24 2Z" fill="var(--fill-0, #141414)"/>
</g>
</svg>
