<svg preserveAspectRatio="none" width="100%" height="100%" overflow="visible" style="display: block;" viewBox="0 0 62.6079 98.4599" fill="none" xmlns="http://www.w3.org/2000/svg">
<g id="&#60;Radial Repeat&#62;">
<path id="Vector" d="M31.3039 98.4599C48.5926 98.4599 62.6079 84.3858 62.6079 67.0246C62.6079 49.6633 48.5926 35.5893 31.3039 35.5893C14.0153 35.5893 1.35123e-05 49.6633 1.35123e-05 67.0246C1.35123e-05 84.3858 14.0153 98.4599 31.3039 98.4599Z" fill="var(--fill-0, #EEE2C8)"/>
<path id="Vector_2" d="M31.276 8.95347C31.276 8.95347 32.0027 21.0785 46.8162 35.9541C61.6297 50.8298 62.3284 62.9548 62.3284 62.9548H0.223618C0.223618 62.9548 1.14593 50.6052 15.7358 35.9541C30.3257 21.303 31.276 8.95347 31.276 8.95347Z" fill="var(--fill-0, #EEE2C8)"/>
<path id="Vector_3" d="M35.161 21.6679H27.4189C28.7778 18.2031 29.5979 14.5492 29.8506 10.834V7.32795e-06H32.6456V10.834C32.9359 14.5519 33.7839 18.2045 35.161 21.6679Z" fill="var(--fill-0, #EEE2C8)"/>
</g>
</svg>
