<svg preserveAspectRatio="none" width="100%" height="100%" overflow="visible" style="display: block;" viewBox="0 0 98.3279 62.8706" fill="none" xmlns="http://www.w3.org/2000/svg">
<g id="&#60;Radial Repeat&#62;">
<path id="Vector" d="M67.024 62.8706C84.3127 62.8706 98.3279 48.7966 98.3279 31.4353C98.3279 14.0741 84.3127 1.57807e-06 67.024 1.57807e-06C49.7353 1.57807e-06 35.72 14.0741 35.72 31.4353C35.72 48.7966 49.7353 62.8706 67.024 62.8706Z" fill="var(--fill-0, #EEE2C8)"/>
<path id="Vector_2" d="M9.16758 31.3792C9.16758 31.3792 21.2419 30.6775 36.0554 15.8019C50.8689 0.926255 62.9432 0.224523 62.9432 0.224523V62.5619C62.9432 62.5619 50.6453 61.6357 36.0554 46.9846C21.4655 32.3335 9.16758 31.3792 9.16758 31.3792Z" fill="var(--fill-0, #EEE2C8)"/>
<path id="Vector_3" d="M21.5774 27.5621V35.3367C18.1302 33.9574 14.4906 33.1241 10.7887 32.8667H0V30.06H10.7887C14.4888 29.772 18.1252 28.9301 21.5774 27.5621Z" fill="var(--fill-0, #EEE2C8)"/>
</g>
</svg>
