<svg preserveAspectRatio="none" width="100%" height="100%" overflow="visible" style="display: block;" viewBox="0 0 119.697 173.119" fill="none" xmlns="http://www.w3.org/2000/svg">
<path id="Vector" d="M44.0212 0C75.94 0 90.1665 4.91177 99.4738 12.6303C105.993 18.3121 111.184 25.368 114.677 33.2952C118.17 41.2225 119.879 49.8258 119.682 58.4921C119.682 76.0342 112.471 94.5024 101.514 103.877C89.6355 113.925 77.9804 118.837 51.2043 118.837H42.5398V173.119H0V0H44.0212ZM42.5398 81.9563H48.9684C55.2983 82.292 61.6303 81.3373 67.5829 79.1496C73.9555 76.3429 79.0424 70.4488 79.0424 59.1938C79.0424 47.9388 73.7041 42.5499 67.052 39.7151C60.6717 37.4945 53.9222 36.5412 47.1795 36.9084H42.5398V81.9563Z" fill="var(--fill-0, #EEE2C8)"/>
</svg>
