<svg preserveAspectRatio="none" width="100%" height="100%" overflow="visible" style="display: block;" viewBox="0 0 98.1602 62.8706" fill="none" xmlns="http://www.w3.org/2000/svg">
<g id="&#60;Radial Repeat&#62;">
<path id="Vector" d="M31.3039 62.8706C48.5926 62.8706 62.6079 48.7966 62.6079 31.4353C62.6079 14.0741 48.5926 0 31.3039 0C14.0152 0 0 14.0741 0 31.4353C0 48.7966 14.0152 62.8706 31.3039 62.8706Z" fill="var(--fill-0, #EEE2C8)"/>
<path id="Vector_2" d="M89.1044 31.3792C89.1044 31.3792 77.0301 32.1089 62.2166 46.9846C47.4031 61.8602 35.3567 62.5618 35.3567 62.5618V0.280713C35.3567 0.280713 47.6267 1.2069 62.2166 15.858C76.8065 30.5091 89.1044 31.3792 89.1044 31.3792Z" fill="var(--fill-0, #EEE2C8)"/>
<path id="Vector_3" d="M76.5828 35.3367V27.5621C80.0339 28.9241 83.6723 29.7475 87.3716 30.0039H98.1602V32.8106H87.2597C83.5959 33.1174 79.9977 33.9687 76.5828 35.3367Z" fill="var(--fill-0, #EEE2C8)"/>
</g>
</svg>
