<svg preserveAspectRatio="none" width="100%" height="100%" overflow="visible" style="display: block;" viewBox="0 0 121.554 173.119" fill="none" xmlns="http://www.w3.org/2000/svg">
<path id="Vector" d="M94.5267 65.6773C99.631 59.3203 102.395 51.3896 102.353 43.2235C102.353 20.1803 80.6076 2.91898 50.4217 0.336793C47.7944 0.112255 40.4715 0 37.8442 0H0V173.119H39.4933C42.7634 173.119 50.6733 173.119 53.8595 172.754C94.8062 169.582 121.554 146.258 121.554 111.539C121.554 90.2081 112.471 74.8273 94.5267 65.6773ZM54.2508 137.53H41.0585V35.3647C42.2883 35.5612 48.2696 35.8419 49.4434 36.2067C53.5681 37.0836 57.257 39.3823 59.8708 42.7042C62.4845 46.0261 63.8583 50.1619 63.7538 54.3943C63.7889 57.9215 63.1109 61.4191 61.7609 64.6755C60.4109 67.932 58.417 70.8795 55.8999 73.3397L50.3099 78.0831L57.5768 79.0374C64.4413 80.0333 70.7012 83.5296 75.1646 88.8606C79.628 94.1915 81.9831 100.985 81.7815 107.947C81.8933 125.124 72.9773 137.558 54.2508 137.558V137.53Z" fill="var(--fill-0, #EEE2C8)"/>
</svg>
