<svg preserveAspectRatio="none" width="100%" height="100%" overflow="visible" style="display: block;" viewBox="0 0 121.633 178.536" fill="none" xmlns="http://www.w3.org/2000/svg">
<path id="Vector" d="M43.5971 118.388C43.5971 138.372 55.8672 141.852 61.4292 141.852C63.6135 141.889 65.7834 141.49 67.8128 140.678C69.8422 139.866 71.6907 138.657 73.251 137.122C74.8112 135.586 76.052 133.755 76.9015 131.734C77.7509 129.713 78.1921 127.542 78.1992 125.348C78.1992 116.283 71.016 113.504 44.6593 102.333C32.6128 97.4495 2.73435 85.3525 2.73435 53.0191C2.73435 18.3841 34.0102 0 62.7148 0C86.3325 0 119.677 12.0971 120.376 53.4962H76.9414C76.0191 47.6863 74.6215 36.6559 61.1776 36.6559C53.5473 36.6559 46.1405 42.0167 46.1405 50.1562C46.1405 58.2957 50.7802 60.1482 81.581 74.0976C113.528 88.5242 121.633 103.4 121.633 123.412C121.633 150.861 107.267 178.536 61.8763 178.536C16.9608 178.536 -1.09486 152.012 0.0510908 118.303L43.5971 118.388Z" fill="var(--fill-0, #EEE2C8)"/>
</svg>
