<svg preserveAspectRatio="none" width="100%" height="100%" overflow="visible" style="display: block;" viewBox="0 0 121.582 173.119" fill="none" xmlns="http://www.w3.org/2000/svg">
<path id="Vector" d="M94.5546 65.6773C99.6468 59.3135 102.409 51.3872 102.381 43.2235C102.381 20.1803 80.6076 2.91898 50.4217 0.336793C47.8224 0.112255 40.4995 0 37.8442 0H0V173.119H39.5212C42.7913 173.119 50.7012 173.119 53.8875 172.754C94.8341 169.582 121.582 146.258 121.582 111.539C121.582 90.2081 112.471 74.8273 94.5546 65.6773ZM54.2787 137.53H41.0864V35.3647C42.3162 35.5612 48.2695 35.8419 49.4713 36.2067C53.5959 37.0836 57.285 39.3823 59.8987 42.7042C62.5125 46.0261 63.8863 50.1619 63.7818 54.3943C63.8168 57.9215 63.1388 61.4191 61.7888 64.6755C60.4389 67.932 58.445 70.8795 55.9279 73.3397L50.3379 78.0831L57.6328 79.0374C64.4947 80.0338 70.7515 83.5312 75.2103 88.8628C79.6691 94.1944 82.0181 100.987 81.8094 107.947C81.8933 125.124 73.0052 137.558 54.2787 137.558V137.53Z" fill="var(--fill-0, #EEE2C8)"/>
</svg>
