<svg preserveAspectRatio="none" width="100%" height="100%" overflow="visible" style="display: block;" viewBox="0 0 62.6079 98.6002" fill="none" xmlns="http://www.w3.org/2000/svg">
<g id="&#60;Radial Repeat&#62;">
<path id="Vector" d="M31.3039 62.8706C48.5926 62.8706 62.6079 48.7966 62.6079 31.4353C62.6079 14.0741 48.5926 0 31.3039 0C14.0152 0 0 14.0741 0 31.4353C0 48.7966 14.0152 62.8706 31.3039 62.8706Z" fill="var(--fill-0, #EEE2C8)"/>
<path id="Vector_2" d="M31.276 89.5065C31.276 89.5065 30.5772 77.3814 15.7638 62.5058C0.950309 47.6301 0.251595 35.5331 0.251595 35.5331H62.3284C62.3284 35.5331 61.4061 47.8547 46.8162 62.5058C32.2263 77.1569 31.276 89.5065 31.276 89.5065Z" fill="var(--fill-0, #EEE2C8)"/>
<path id="Vector_3" d="M27.4189 76.9323H35.161C33.7914 80.3952 32.9617 84.0495 32.7014 87.7663V98.6002H29.9064V87.9066C29.6293 84.144 28.7908 80.4447 27.4189 76.9323Z" fill="var(--fill-0, #EEE2C8)"/>
</g>
</svg>
