<svg preserveAspectRatio="none" width="100%" height="100%" overflow="visible" style="display: block;" viewBox="0 0 120.576 178.648" fill="none" xmlns="http://www.w3.org/2000/svg">
<path id="Vector" d="M97.4334 138.989C87.2736 139.18 77.2842 136.352 68.7207 130.859C60.1572 125.365 53.4018 117.453 49.3036 108.115H120.576V70.3645H49.3036C53.4575 61.0876 60.2333 53.2401 68.7896 47.7963C77.346 42.3525 87.3061 39.5522 97.4334 39.7431C105.249 39.7709 113.029 40.8182 120.576 42.8587V3.8171C110.689 1.30477 100.532 0.0228055 90.3341 0C37.5926 0 0 38.6766 0 89.338C0 139.999 37.5926 178.648 90.3341 178.648C100.531 178.634 110.688 177.362 120.576 174.859V135.733C113.038 137.835 105.257 138.93 97.4334 138.989Z" fill="var(--fill-0, #EEE2C8)"/>
</svg>
